REM DIRINDEX 1\2,1\3,1\4,1\5,1\6
REM DIRNAME folder01,folder02,folder03,folder04,folder05,folder06
TITLE ""
FILE "DISC2Track20.mp3" MP3
  TRACK 01 AUDIO
    TITLE "0:"
    INDEX 01 00:00:00
  TRACK 02 AUDIO
    TITLE "3:cjc129_1524"
    INDEX 01 00:00:05
  TRACK 03 AUDIO
    TITLE "0:"
    INDEX 01 00:03:06
  TRACK 04 AUDIO
    TITLE "5:cjc129_1525"
    INDEX 01 00:04:52
  TRACK 05 AUDIO
    TITLE "0:"
    INDEX 01 00:09:06
  TRACK 06 AUDIO
    TITLE "4:cjc129_1526"
    INDEX 01 00:09:71
  TRACK 07 AUDIO
    TITLE "0:"
    INDEX 01 00:12:73
  TRACK 08 AUDIO
    TITLE "6:cjc129_1527"
    INDEX 01 00:13:30
  TRACK 09 AUDIO
    TITLE "0:"
    INDEX 01 00:18:15
  TRACK 10 AUDIO
    TITLE "3:cjc129_1528"
    INDEX 01 00:19:60
  TRACK 11 AUDIO
    TITLE "0:"
    INDEX 01 00:22:60
  TRACK 12 AUDIO
    TITLE "5:cjc129_1529"
    INDEX 01 00:24:18
  TRACK 13 AUDIO
    TITLE "0:"
    INDEX 01 00:28:19
  TRACK 14 AUDIO
    TITLE "4:cjc129_1530"
    INDEX 01 00:29:09
  TRACK 15 AUDIO
    TITLE "0:"
    INDEX 01 00:32:11
  TRACK 16 AUDIO
    TITLE "6:cjc129_1531"
    INDEX 01 00:32:41
  TRACK 17 AUDIO
    TITLE "0:"
    INDEX 01 00:37:52
  TRACK 18 AUDIO
    TITLE "3:cjc129_1532"
    INDEX 01 00:39:31
  TRACK 19 AUDIO
    TITLE "0:"
    INDEX 01 00:42:35
  TRACK 20 AUDIO
    TITLE "5:cjc129_1533"
    INDEX 01 00:44:07
  TRACK 21 AUDIO
    TITLE "0:"
    INDEX 01 00:46:21
  TRACK 22 AUDIO
    TITLE "4:cjc129_1534"
    INDEX 01 00:47:09
  TRACK 23 AUDIO
    TITLE "0:"
    INDEX 01 00:50:13
  TRACK 24 AUDIO
    TITLE "6:cjc129_1535"
    INDEX 01 00:50:46
  TRACK 25 AUDIO
    TITLE "0:"
    INDEX 01 00:54:17
  TRACK 26 AUDIO
    TITLE "3:cjc129_1536"
    INDEX 01 00:55:67
  TRACK 27 AUDIO
    TITLE "0:"
    INDEX 01 00:58:71
  TRACK 28 AUDIO
    TITLE "5:cjc129_1537"
    INDEX 01 01:00:23
  TRACK 29 AUDIO
    TITLE "0:"
    INDEX 01 01:02:32
  TRACK 30 AUDIO
    TITLE "4:cjc129_1538"
    INDEX 01 01:03:22
  TRACK 31 AUDIO
    TITLE "0:"
    INDEX 01 01:06:26
  TRACK 32 AUDIO
    TITLE "6:cjc129_1539"
    INDEX 01 01:06:57
  TRACK 33 AUDIO
    TITLE "0:"
    INDEX 01 01:11:43
  TRACK 34 AUDIO
    TITLE "3:cjc129_1540"
    INDEX 01 01:13:22
  TRACK 35 AUDIO
    TITLE "0:"
    INDEX 01 01:14:41
  TRACK 36 AUDIO
    TITLE "5:cjc129_1541"
    INDEX 01 01:16:07
  TRACK 37 AUDIO
    TITLE "0:"
    INDEX 01 01:20:63
  TRACK 38 AUDIO
    TITLE "4:cjc129_1542"
    INDEX 01 01:21:53
  TRACK 39 AUDIO
    TITLE "0:"
    INDEX 01 01:22:70
  TRACK 40 AUDIO
    TITLE "6:cjc129_1543"
    INDEX 01 01:23:28
  TRACK 41 AUDIO
    TITLE "0:"
    INDEX 01 01:28:04
  TRACK 42 AUDIO
    TITLE "3:cjc129_1544"
    INDEX 01 01:29:54
  TRACK 43 AUDIO
    TITLE "0:"
    INDEX 01 01:30:73
  TRACK 44 AUDIO
    TITLE "5:cjc129_1545"
    INDEX 01 01:32:27
  TRACK 45 AUDIO
    TITLE "0:"
    INDEX 01 01:36:25
  TRACK 46 AUDIO
    TITLE "4:cjc129_1546"
    INDEX 01 01:37:11
  TRACK 47 AUDIO
    TITLE "0:"
    INDEX 01 01:38:28
  TRACK 48 AUDIO
    TITLE "6:cjc129_1547"
    INDEX 01 01:38:61
  TRACK 49 AUDIO
    TITLE "0:"
    INDEX 01 01:42:63
  TRACK 50 AUDIO
    TITLE "3:cjc129_1548"
    INDEX 01 01:44:40
  TRACK 51 AUDIO
    TITLE "0:"
    INDEX 01 01:45:61
  TRACK 52 AUDIO
    TITLE "5:cjc129_1549"
    INDEX 01 01:47:27
  TRACK 53 AUDIO
    TITLE "0:"
    INDEX 01 01:49:71
  TRACK 54 AUDIO
    TITLE "4:cjc129_1550"
    INDEX 01 01:50:62
  TRACK 55 AUDIO
    TITLE "0:"
    INDEX 01 01:52:08
  TRACK 56 AUDIO
    TITLE "6:cjc129_1551"
    INDEX 01 01:52:40
  TRACK 57 AUDIO
    TITLE "0:"
    INDEX 01 01:57:55
  TRACK 58 AUDIO
    TITLE "3:cjc129_1552"
    INDEX 01 01:59:30
  TRACK 59 AUDIO
    TITLE "0:"
    INDEX 01 02:00:47
  TRACK 60 AUDIO
    TITLE "5:cjc129_1553"
    INDEX 01 02:02:01
  TRACK 61 AUDIO
    TITLE "0:"
    INDEX 01 02:04:74
  TRACK 62 AUDIO
    TITLE "4:cjc129_1554"
    INDEX 01 02:05:64
  TRACK 63 AUDIO
    TITLE "0:"
    INDEX 01 02:07:08
  TRACK 64 AUDIO
    TITLE "6:cjc129_1555"
    INDEX 01 02:07:41
  TRACK 65 AUDIO
    TITLE "0:"
    INDEX 01 02:11:43
  TRACK 66 AUDIO
    TITLE "3:cjc129_1556"
    INDEX 01 02:13:20
  TRACK 67 AUDIO
    TITLE "0:"
    INDEX 01 02:14:41
  TRACK 68 AUDIO
    TITLE "5:cjc129_1557"
    INDEX 01 02:16:11
  TRACK 69 AUDIO
    TITLE "0:"
    INDEX 01 02:18:35
  TRACK 70 AUDIO
    TITLE "4:cjc129_1558"
    INDEX 01 02:19:25
  TRACK 71 AUDIO
    TITLE "0:"
    INDEX 01 02:20:42
  TRACK 72 AUDIO
    TITLE "6:cjc129_1559"
    INDEX 01 02:21:02
  TRACK 73 AUDIO
    TITLE "0:"
    INDEX 01 02:23:68
